<?xml version="1.0" standalone="no"?>
<!DOCTYPE svg PUBLIC "-//W3C//DTD SVG 20010904//EN"
 "http://www.w3.org/TR/2001/REC-SVG-20010904/DTD/svg10.dtd">
<svg version="1.0" xmlns="http://www.w3.org/2000/svg"
 width="640.000000pt" height="640.000000pt" viewBox="0 0 640.000000 640.000000"
 preserveAspectRatio="xMidYMid meet">
<metadata>
Created by potrace 1.11, written by Peter Selinger 2001-2013
</metadata>
<g transform="translate(0.000000,640.000000) scale(0.100000,-0.100000)"
fill="#000000" stroke="none">
<path d="M2480 4139 c0 -3 27 -63 60 -133 33 -70 60 -129 60 -132 0 -2 -21 -4
-46 -4 -33 0 -98 -19 -223 -66 -97 -37 -177 -67 -179 -69 -2 -1 49 -33 112
-69 l115 -67 538 41 c296 22 545 40 553 40 8 0 -16 21 -53 46 l-68 45 -217
-20 c-119 -12 -232 -24 -249 -27 -28 -4 -33 -2 -33 14 0 17 16 21 178 36 97 9
197 20 222 24 l45 7 -53 33 -52 32 -148 0 -147 0 -135 135 -135 135 -73 2
c-39 2 -72 0 -72 -3z"/>
<path d="M1855 3522 c-111 -92 -202 -171 -203 -177 -1 -5 46 -27 106 -48 105
-37 109 -38 217 -32 61 3 658 34 1328 70 669 36 1234 65 1254 65 50 0 37 10
-82 63 -55 25 -143 65 -195 90 -52 24 -123 57 -158 72 l-64 28 -566 -42 c-312
-23 -693 -51 -848 -63 l-281 -20 -79 45 c-43 24 -106 61 -139 81 -33 20 -67
36 -75 36 -8 -1 -105 -76 -215 -168z m2053 16 c30 -30 0 -75 -43 -64 -19 5
-25 13 -25 35 0 38 41 56 68 29z m-217 -8 c24 -14 25 -56 1 -69 -41 -22 -85
45 -44 68 21 13 20 13 43 1z m-191 -25 c10 -12 10 -21 2 -40 -12 -25 -27 -30
-56 -19 -16 6 -22 54 -9 67 12 12 50 7 63 -8z m-212 -7 c17 -17 15 -57 -3 -64
-8 -4 -26 -3 -40 0 -41 11 -28 76 15 76 9 0 21 -5 28 -12z m-198 -27 c23 -44
-27 -78 -62 -43 -16 16 -18 23 -9 41 15 27 57 28 71 2z m-210 -6 c7 -8 10 -25
6 -40 -11 -41 -76 -29 -76 15 0 36 47 53 70 25z m-193 -32 c4 -10 -2 -23 -16
-35 -30 -24 -37 -23 -58 8 -16 26 -16 27 6 45 25 21 57 12 68 -18z m-217 2
c26 -32 -13 -81 -47 -59 -35 22 -23 74 17 74 10 0 23 -7 30 -15z"/>
<path d="M4325 3319 c-379 -20 -820 -44 -980 -53 -159 -8 -558 -29 -886 -47
l-596 -32 -200 67 c-218 73 -234 74 -269 21 -15 -23 -16 -34 -6 -83 24 -119
73 -317 81 -325 5 -5 39 3 78 18 135 55 356 94 460 82 36 -4 43 -2 43 13 0 13
20 25 73 45 113 42 240 65 392 71 253 11 431 -22 820 -151 480 -161 557 -176
893 -175 280 0 295 3 445 82 95 50 243 204 355 371 l93 137 -53 -1 c-29 -1
-363 -19 -743 -40z m-415 -114 c15 -19 4 -52 -21 -60 -11 -4 -26 -1 -34 5 -15
13 -20 51 -8 63 12 12 50 7 63 -8z m-212 -7 c7 -7 12 -22 12 -35 0 -27 -42
-42 -65 -23 -28 23 -11 70 25 70 9 0 21 -5 28 -12z m-204 -17 c21 -24 14 -57
-15 -66 -42 -14 -69 52 -31 74 24 14 26 14 46 -8z m-204 -16 c26 -32 -13 -81
-47 -59 -35 22 -23 74 17 74 10 0 23 -7 30 -15z"/>
<path d="M2405 2999 c-85 -11 -223 -45 -273 -67 l-37 -16 30 -4 c136 -14 294
-61 489 -144 344 -146 483 -196 736 -262 354 -93 674 -89 922 10 100 40 208
104 248 149 l25 28 -30 -7 c-122 -30 -350 -35 -510 -11 -223 34 -363 71 -720
190 -393 132 -620 166 -880 134z"/>
</g>
</svg>
